<mxfile modified="2024-05-02T06:59:44.575Z" host="app.diagrams.net" agent="Mozilla/5.0 (Macintosh; Intel Mac OS X 10_15_7) AppleWebKit/537.36 (KHTML, like Gecko) Chrome/124.0.0.0 Safari/537.36" etag="JuwWJfwQ4r2WF_R88UTI" version="24.0.1" type="github">
  <diagram id="Ht1M8jgEwFfnCIfOTk4-" name="Page-1">
    <mxGraphModel dx="1258" dy="684" grid="1" gridSize="10" guides="1" tooltips="1" connect="1" arrows="1" fold="1" page="1" pageScale="1" pageWidth="1169" pageHeight="827" math="0" shadow="0">
      <root>
        <mxCell id="0" />
        <mxCell id="1" parent="0" />
        <mxCell id="Q0F1z93MMg5UHLf2VifY-2" value="API Gateway" style="image;aspect=fixed;html=1;points=[];align=center;fontSize=12;image=img/lib/azure2/compute/Azure_Spring_Cloud.svg;" vertex="1" parent="1">
          <mxGeometry x="420" y="250" width="68" height="68" as="geometry" />
        </mxCell>
        <mxCell id="Q0F1z93MMg5UHLf2VifY-3" value="React(Client)" style="verticalLabelPosition=bottom;html=1;verticalAlign=top;strokeWidth=1;align=center;outlineConnect=0;dashed=0;outlineConnect=0;shape=mxgraph.aws3d.client;aspect=fixed;strokeColor=none;fillColor=#777777;" vertex="1" parent="1">
          <mxGeometry x="1060.73" y="440" width="26.54" height="46" as="geometry" />
        </mxCell>
        <mxCell id="Q0F1z93MMg5UHLf2VifY-4" value="" style="endArrow=classic;html=1;rounded=0;" edge="1" parent="1">
          <mxGeometry relative="1" as="geometry">
            <mxPoint x="310" y="283.5" as="sourcePoint" />
            <mxPoint x="410" y="283.5" as="targetPoint" />
          </mxGeometry>
        </mxCell>
        <mxCell id="Q0F1z93MMg5UHLf2VifY-5" value="" style="shape=message;html=1;outlineConnect=0;" vertex="1" parent="Q0F1z93MMg5UHLf2VifY-4">
          <mxGeometry width="19" height="14" relative="1" as="geometry">
            <mxPoint x="-10" y="-7" as="offset" />
          </mxGeometry>
        </mxCell>
        <mxCell id="Q0F1z93MMg5UHLf2VifY-6" value="" style="endArrow=classic;html=1;rounded=0;" edge="1" parent="1">
          <mxGeometry relative="1" as="geometry">
            <mxPoint x="453.5" y="360" as="sourcePoint" />
            <mxPoint x="454" y="490" as="targetPoint" />
          </mxGeometry>
        </mxCell>
        <mxCell id="Q0F1z93MMg5UHLf2VifY-7" value="" style="shape=message;html=1;outlineConnect=0;" vertex="1" parent="Q0F1z93MMg5UHLf2VifY-6">
          <mxGeometry width="20" height="14" relative="1" as="geometry">
            <mxPoint x="-10" y="-7" as="offset" />
          </mxGeometry>
        </mxCell>
        <mxCell id="Q0F1z93MMg5UHLf2VifY-8" value="Account server" style="image;aspect=fixed;html=1;points=[];align=center;fontSize=12;image=img/lib/azure2/compute/Azure_Spring_Cloud.svg;" vertex="1" parent="1">
          <mxGeometry x="420" y="500" width="68" height="68" as="geometry" />
        </mxCell>
        <mxCell id="Q0F1z93MMg5UHLf2VifY-11" value="" style="sketch=0;outlineConnect=0;fontColor=#232F3E;gradientColor=none;fillColor=#C925D1;strokeColor=none;dashed=0;verticalLabelPosition=bottom;verticalAlign=top;align=center;html=1;fontSize=12;fontStyle=0;aspect=fixed;pointerEvents=1;shape=mxgraph.aws4.rds_mysql_instance;" vertex="1" parent="1">
          <mxGeometry x="670" y="620" width="60" height="60" as="geometry" />
        </mxCell>
        <mxCell id="Q0F1z93MMg5UHLf2VifY-13" value="" style="endArrow=classic;html=1;rounded=0;" edge="1" parent="1">
          <mxGeometry relative="1" as="geometry">
            <mxPoint x="510" y="590" as="sourcePoint" />
            <mxPoint x="630" y="660" as="targetPoint" />
          </mxGeometry>
        </mxCell>
        <mxCell id="Q0F1z93MMg5UHLf2VifY-14" value="" style="shape=message;html=1;outlineConnect=0;" vertex="1" parent="Q0F1z93MMg5UHLf2VifY-13">
          <mxGeometry width="20" height="14" relative="1" as="geometry">
            <mxPoint x="-10" y="-7" as="offset" />
          </mxGeometry>
        </mxCell>
        <mxCell id="Q0F1z93MMg5UHLf2VifY-15" value="" style="endArrow=classic;html=1;rounded=0;" edge="1" parent="1">
          <mxGeometry relative="1" as="geometry">
            <mxPoint x="640" y="620" as="sourcePoint" />
            <mxPoint x="520" y="550" as="targetPoint" />
          </mxGeometry>
        </mxCell>
        <mxCell id="Q0F1z93MMg5UHLf2VifY-16" value="" style="shape=message;html=1;outlineConnect=0;" vertex="1" parent="Q0F1z93MMg5UHLf2VifY-15">
          <mxGeometry width="20" height="14" relative="1" as="geometry">
            <mxPoint x="-10" y="-7" as="offset" />
          </mxGeometry>
        </mxCell>
        <mxCell id="Q0F1z93MMg5UHLf2VifY-19" value="" style="endArrow=classic;html=1;rounded=0;" edge="1" parent="1">
          <mxGeometry relative="1" as="geometry">
            <mxPoint x="510" y="283.5" as="sourcePoint" />
            <mxPoint x="600" y="284" as="targetPoint" />
          </mxGeometry>
        </mxCell>
        <mxCell id="Q0F1z93MMg5UHLf2VifY-20" value="" style="shape=message;html=1;outlineConnect=0;" vertex="1" parent="Q0F1z93MMg5UHLf2VifY-19">
          <mxGeometry width="19" height="14" relative="1" as="geometry">
            <mxPoint x="-10" y="-7" as="offset" />
          </mxGeometry>
        </mxCell>
        <mxCell id="Q0F1z93MMg5UHLf2VifY-21" value="RabbitMQ" style="sketch=0;outlineConnect=0;fontColor=#232F3E;gradientColor=none;fillColor=#E7157B;strokeColor=none;dashed=0;verticalLabelPosition=bottom;verticalAlign=top;align=center;html=1;fontSize=12;fontStyle=0;aspect=fixed;pointerEvents=1;shape=mxgraph.aws4.queue;" vertex="1" parent="1">
          <mxGeometry x="800" y="259" width="78" height="47" as="geometry" />
        </mxCell>
        <mxCell id="Q0F1z93MMg5UHLf2VifY-22" value="" style="endArrow=classic;html=1;rounded=0;" edge="1" parent="1">
          <mxGeometry relative="1" as="geometry">
            <mxPoint x="90.00000000000001" y="283.5" as="sourcePoint" />
            <mxPoint x="190" y="283.5" as="targetPoint" />
          </mxGeometry>
        </mxCell>
        <mxCell id="Q0F1z93MMg5UHLf2VifY-23" value="" style="shape=message;html=1;outlineConnect=0;" vertex="1" parent="Q0F1z93MMg5UHLf2VifY-22">
          <mxGeometry width="20" height="14" relative="1" as="geometry">
            <mxPoint x="-10" y="-7" as="offset" />
          </mxGeometry>
        </mxCell>
        <mxCell id="Q0F1z93MMg5UHLf2VifY-24" value="Web server(Nginx)" style="image;html=1;image=img/lib/clip_art/computers/Server_128x128.png" vertex="1" parent="1">
          <mxGeometry x="220" y="244" width="80" height="80" as="geometry" />
        </mxCell>
        <mxCell id="Q0F1z93MMg5UHLf2VifY-25" value="" style="endArrow=classic;html=1;rounded=0;" edge="1" parent="1">
          <mxGeometry relative="1" as="geometry">
            <mxPoint x="630" y="370" as="sourcePoint" />
            <mxPoint x="670" y="590" as="targetPoint" />
          </mxGeometry>
        </mxCell>
        <mxCell id="Q0F1z93MMg5UHLf2VifY-26" value="" style="shape=message;html=1;outlineConnect=0;" vertex="1" parent="Q0F1z93MMg5UHLf2VifY-25">
          <mxGeometry width="20" height="14" relative="1" as="geometry">
            <mxPoint x="-10" y="-7" as="offset" />
          </mxGeometry>
        </mxCell>
        <mxCell id="Q0F1z93MMg5UHLf2VifY-27" value="" style="endArrow=classic;html=1;rounded=0;" edge="1" parent="1">
          <mxGeometry relative="1" as="geometry">
            <mxPoint x="708" y="590" as="sourcePoint" />
            <mxPoint x="670" y="360" as="targetPoint" />
          </mxGeometry>
        </mxCell>
        <mxCell id="Q0F1z93MMg5UHLf2VifY-28" value="" style="shape=message;html=1;outlineConnect=0;" vertex="1" parent="Q0F1z93MMg5UHLf2VifY-27">
          <mxGeometry width="20" height="14" relative="1" as="geometry">
            <mxPoint x="-10" y="-7" as="offset" />
          </mxGeometry>
        </mxCell>
        <mxCell id="Q0F1z93MMg5UHLf2VifY-29" value="" style="endArrow=classic;html=1;rounded=0;" edge="1" parent="1">
          <mxGeometry relative="1" as="geometry">
            <mxPoint x="900" y="282.5" as="sourcePoint" />
            <mxPoint x="1020" y="282.75" as="targetPoint" />
          </mxGeometry>
        </mxCell>
        <mxCell id="Q0F1z93MMg5UHLf2VifY-30" value="" style="shape=message;html=1;outlineConnect=0;" vertex="1" parent="Q0F1z93MMg5UHLf2VifY-29">
          <mxGeometry width="19" height="14" relative="1" as="geometry">
            <mxPoint x="-10" y="-7" as="offset" />
          </mxGeometry>
        </mxCell>
        <mxCell id="Q0F1z93MMg5UHLf2VifY-31" value="React(Client)" style="verticalLabelPosition=bottom;html=1;verticalAlign=top;strokeWidth=1;align=center;outlineConnect=0;dashed=0;outlineConnect=0;shape=mxgraph.aws3d.client;aspect=fixed;strokeColor=none;fillColor=#777777;" vertex="1" parent="1">
          <mxGeometry x="40" y="260" width="26.54" height="46" as="geometry" />
        </mxCell>
        <mxCell id="Q0F1z93MMg5UHLf2VifY-32" value="Push Server" style="image;aspect=fixed;html=1;points=[];align=center;fontSize=12;image=img/lib/azure2/compute/Azure_Spring_Cloud.svg;" vertex="1" parent="1">
          <mxGeometry x="1040" y="244" width="68" height="68" as="geometry" />
        </mxCell>
        <mxCell id="Q0F1z93MMg5UHLf2VifY-33" value="" style="endArrow=classic;html=1;rounded=0;" edge="1" parent="1">
          <mxGeometry relative="1" as="geometry">
            <mxPoint x="1073.5" y="348" as="sourcePoint" />
            <mxPoint x="1073.5" y="414" as="targetPoint" />
          </mxGeometry>
        </mxCell>
        <mxCell id="Q0F1z93MMg5UHLf2VifY-34" value="" style="shape=message;html=1;outlineConnect=0;" vertex="1" parent="Q0F1z93MMg5UHLf2VifY-33">
          <mxGeometry width="19" height="14" relative="1" as="geometry">
            <mxPoint x="-10" y="-7" as="offset" />
          </mxGeometry>
        </mxCell>
        <mxCell id="Q0F1z93MMg5UHLf2VifY-35" value="API Server" style="image;aspect=fixed;html=1;points=[];align=center;fontSize=12;image=img/lib/azure2/compute/Azure_Spring_Cloud.svg;" vertex="1" parent="1">
          <mxGeometry x="610" y="250" width="68" height="68" as="geometry" />
        </mxCell>
        <mxCell id="Q0F1z93MMg5UHLf2VifY-36" value="" style="endArrow=classic;html=1;rounded=0;" edge="1" parent="1">
          <mxGeometry relative="1" as="geometry">
            <mxPoint x="690" y="283.5" as="sourcePoint" />
            <mxPoint x="780" y="284" as="targetPoint" />
          </mxGeometry>
        </mxCell>
        <mxCell id="Q0F1z93MMg5UHLf2VifY-37" value="" style="shape=message;html=1;outlineConnect=0;" vertex="1" parent="Q0F1z93MMg5UHLf2VifY-36">
          <mxGeometry width="19" height="14" relative="1" as="geometry">
            <mxPoint x="-10" y="-7" as="offset" />
          </mxGeometry>
        </mxCell>
        <mxCell id="Q0F1z93MMg5UHLf2VifY-38" value="" style="endArrow=classic;html=1;rounded=0;" edge="1" parent="1">
          <mxGeometry relative="1" as="geometry">
            <mxPoint x="616.5" y="244" as="sourcePoint" />
            <mxPoint x="580" y="180" as="targetPoint" />
          </mxGeometry>
        </mxCell>
        <mxCell id="Q0F1z93MMg5UHLf2VifY-39" value="" style="shape=message;html=1;outlineConnect=0;" vertex="1" parent="Q0F1z93MMg5UHLf2VifY-38">
          <mxGeometry width="19" height="14" relative="1" as="geometry">
            <mxPoint x="-10" y="-7" as="offset" />
          </mxGeometry>
        </mxCell>
        <mxCell id="Q0F1z93MMg5UHLf2VifY-40" value="Redis&lt;div&gt;&lt;br&gt;&lt;/div&gt;" style="image;sketch=0;aspect=fixed;html=1;points=[];align=center;fontSize=12;image=img/lib/mscae/Cache_Redis_Product.svg;" vertex="1" parent="1">
          <mxGeometry x="570" y="100" width="50" height="42" as="geometry" />
        </mxCell>
        <mxCell id="Q0F1z93MMg5UHLf2VifY-41" value="" style="endArrow=classic;html=1;rounded=0;" edge="1" parent="1">
          <mxGeometry relative="1" as="geometry">
            <mxPoint x="610" y="180" as="sourcePoint" />
            <mxPoint x="650" y="240" as="targetPoint" />
          </mxGeometry>
        </mxCell>
        <mxCell id="Q0F1z93MMg5UHLf2VifY-42" value="" style="shape=message;html=1;outlineConnect=0;" vertex="1" parent="Q0F1z93MMg5UHLf2VifY-41">
          <mxGeometry width="19" height="14" relative="1" as="geometry">
            <mxPoint x="-10" y="-7" as="offset" />
          </mxGeometry>
        </mxCell>
        <mxCell id="Q0F1z93MMg5UHLf2VifY-47" value="&lt;ul&gt;&lt;li&gt;Nginx 사용여부 보류&lt;/li&gt;&lt;/ul&gt;" style="text;strokeColor=none;fillColor=none;html=1;whiteSpace=wrap;verticalAlign=middle;overflow=hidden;" vertex="1" parent="1">
          <mxGeometry x="150" y="164" width="100" height="80" as="geometry" />
        </mxCell>
      </root>
    </mxGraphModel>
  </diagram>
</mxfile>
